<svg xmlns="http://www.w3.org/2000/svg" xmlns:xlink="http://www.w3.org/1999/xlink" width="654.002" height="431.417" viewBox="0 0 654.002 431.417"><defs><linearGradient id="linear-gradient" x1="0.44" y1="0.211" x2="0.436" y2="0.858" gradientUnits="objectBoundingBox"><stop offset="0" stop-color="#00dd9a" stop-opacity="0"></stop><stop offset="1" stop-color="#00dd9a"></stop></linearGradient><linearGradient id="linear-gradient-2" x1="0.56" y1="0.211" x2="0.564" y2="0.858" xlink:href="#linear-gradient"></linearGradient><linearGradient id="linear-gradient-3" x1="0.6" y1="0.361" x2="0" y2="0.408" gradientUnits="objectBoundingBox"><stop offset="0" stop-color="#4c9af3"></stop><stop offset="1" stop-color="#8f54e9"></stop></linearGradient><linearGradient id="linear-gradient-4" x1="0.627" y1="0.077" x2="0.844" y2="0.807" gradientUnits="objectBoundingBox"><stop offset="0" stop-color="#0861bf"></stop><stop offset="1" stop-color="#2a9deb"></stop></linearGradient><linearGradient id="linear-gradient-5" x1="0.195" y1="0.5" x2="0.829" y2="0.5" gradientUnits="objectBoundingBox"><stop offset="0" stop-color="#875fe8"></stop><stop offset="1" stop-color="#4a35d6"></stop></linearGradient><linearGradient id="linear-gradient-6" x1="0.13" y1="0.538" x2="0.88" y2="0.576" gradientUnits="objectBoundingBox"><stop offset="0" stop-color="#ff5d87"></stop><stop offset="1" stop-color="#ff9b55"></stop></linearGradient><linearGradient id="linear-gradient-7" x1="0.089" y1="0.795" x2="0.891" y2="0.91" gradientUnits="objectBoundingBox"><stop offset="0" stop-color="#ff5d87"></stop><stop offset="0.799" stop-color="#ffd089"></stop><stop offset="1" stop-color="#ffaf66"></stop></linearGradient><linearGradient id="linear-gradient-8" x1="0.5" x2="0.5" y2="1" gradientUnits="objectBoundingBox"><stop offset="0" stop-color="#ff4631"></stop><stop offset="1" stop-color="#ff9e57"></stop></linearGradient><linearGradient id="linear-gradient-9" x1="0.5" x2="0.5" y2="1" gradientUnits="objectBoundingBox"><stop offset="0" stop-color="#ff2ab6"></stop><stop offset="0.301" stop-color="#ff2ab6"></stop><stop offset="0.634" stop-color="#c815db"></stop><stop offset="1" stop-color="#9200ff"></stop></linearGradient><linearGradient id="linear-gradient-10" y1="0.918" x2="0.832" y2="0.524" gradientUnits="objectBoundingBox"><stop offset="0" stop-color="#ff744e"></stop><stop offset="1" stop-color="#ff5437"></stop></linearGradient><linearGradient id="linear-gradient-11" x1="0.5" x2="0.5" y2="1" gradientUnits="objectBoundingBox"><stop offset="0" stop-color="#ff2ab6"></stop><stop offset="0.485" stop-color="#fe94ff"></stop><stop offset="1" stop-color="#9200ff"></stop></linearGradient><linearGradient id="linear-gradient-12" x1="0.56" y1="0.211" x2="0.564" y2="0.858" gradientUnits="objectBoundingBox"><stop offset="0" stop-color="#ff2ab6" stop-opacity="0"></stop><stop offset="1" stop-color="#ff2ab6"></stop></linearGradient></defs><g id="uno-re" transform="translate(-5153.336 -5710.002)"><path id="Path_3951" data-name="Path 3951" d="M1227.117,4075.2c27.576-19.241,155.7-59.272,261.23,32.537" transform="translate(4162.164 1811.682)" fill="none" stroke="#00dd9a" stroke-width="1"></path><g id="Group_3500" data-name="Group 3500" transform="translate(5244.336 5712.958)" opacity="0.2"><path id="Path_112" data-name="Path 112" d="M772.316,1542.243c-6.133,3.816-14.446,11.312,0,22.624,0,0,3.952,2.18,11.993,7.5s27.257,4.36,34.48,0c3.952-2.044,9.812-5.588,16.354-9.54s8.722-13.9-2.317-20.579c-5.451-3.135-6.542-3.816-12.811-7.087s-22.078-7.087-34.889,0Z" transform="translate(-399.479 -1247.927)" fill="#7f86b5"></path><path id="Path_113" data-name="Path 113" d="M192.63,1679.765c-5.95,3.7-14.017,10.976,0,21.951,0,0,3.835,2.115,11.637,7.272s26.447,4.232,33.455,0c3.835-1.983,9.521-5.421,15.868-9.256s8.463-13.488-2.248-19.968c-5.289-3.041-6.347-3.7-12.43-6.876s-21.422-6.876-33.852,0Z" transform="translate(-41.913 -1340.993)" fill="#7f86b5"></path><path id="Path_114" data-name="Path 114" d="M446.229,1460.658s-108.548,60.693-120.8,68.28-22.76,23.927-3.5,36.183,87.538,51.356,102.128,59.526,29.18,10.5,49.605-1.751,87.538-51.355,103.3-59.526,15.173-19.259,0-28.012-17.508-10.5-27.429-15.173-13.423-16.341.584-24.511,26.845-15.757,38.517-22.76,14.006-17.508,0-25.094-28.012-16.341-38.517-22.177-26.261-9.337-46.687,2.334Z" transform="translate(-94.568 -1237.405)" fill="#7f86b5"></path><path id="Path_115" data-name="Path 115" d="M606.807,1752.145c-16.924,11.088-14.59,19.259-2.918,26.261s28.012,6.419,40.851,0,26.262-9.337,40.268-.583,33.848,6.419,50.772-3.5,15.757-9.337,29.18-16.924,16.34-19.258-4.669-30.93-21.593-11.672-33.848-18.675-27.429-7.587-44.353,2.334S606.807,1752.145,606.807,1752.145Z" transform="translate(-212.543 -1354.982)" fill="#7f86b5"></path><path id="Path_116" data-name="Path 116" d="M148.113,1149.52c-8.754-7-13.423-12.255-2.918-18.675s42.018-25.094,52.523-30.346,21.009-5.836,29.763,0,20.426,5.836,32.681-1.167,74.116-42.6,83.453-48.438,22.176-7.586,35.015,0,100.961,58.943,112.049,65.362,25.094,13.422,6.419,23.927-79.368,44.353-86.371,49.021-9.921,11.088-1.167,16.341,20.426,4.669,29.179,0c4.085-1.751,6.42-2.334,12.255-7s15.757-5.836,28.012,1.167c5.252,2.918,6.419,3.5,11.088,5.836,11.088,7.587,5.836,12.839,0,16.924a68.514,68.514,0,0,1-15.757,8.754c-7,2.918-17.508,2.334-26.261-2.918s-20.426-13.423-37.933-4.085-42.018,26.845-54.274,35.6-19.259,8.17-33.265,0S148.113,1149.52,148.113,1149.52Z" transform="translate(-230.162 -982.946)" fill="#7f86b5"></path></g><path id="Path_3934" data-name="Path 3934" d="M1427.771,4222.266s-88.5,44.958-200.655-5.679c-84.237-38.806-49.69-89.442-49.69-89.442" transform="translate(4161.304 1810.359)" fill="none"></path><g id="Group_3501" data-name="Group 3501" transform="translate(5313.211 5880.691)"><path id="Path_118" data-name="Path 118" d="M507.049,846.472c-13.824,0-26.863-3.189-36.715-8.98-10.326-6.07-16.013-14.3-16.013-23.184s5.687-17.116,16.013-23.186c9.852-5.79,22.891-8.979,36.715-8.979s26.863,3.189,36.715,8.979c10.327,6.07,16.014,14.3,16.014,23.186s-5.687,17.114-16.014,23.184C533.911,843.283,520.872,846.472,507.049,846.472Zm0-58.643c-12.826,0-24.842,2.91-33.834,8.2-8.518,5.006-13.208,11.5-13.208,18.282s4.691,13.275,13.208,18.282c8.992,5.286,21.008,8.2,33.834,8.2s24.841-2.911,33.834-8.2c8.517-5.006,13.208-11.5,13.208-18.282s-4.691-13.276-13.208-18.282C531.891,790.74,519.875,787.829,507.049,787.829Z" transform="translate(-454.32 -782.143)" fill="#00dd9a"></path></g><path id="Path_3935" data-name="Path 3935" d="M507.049,846.472c-13.824,0-26.863-3.189-36.715-8.98-10.326-6.07-16.013-14.3-16.013-23.184s5.687-17.116,16.013-23.186c9.852-5.79,22.891-8.979,36.715-8.979s26.863,3.189,36.715,8.979c10.327,6.07,16.014,14.3,16.014,23.186s-5.687,17.114-16.014,23.184C533.911,843.283,520.872,846.472,507.049,846.472Zm0-58.643c-12.826,0-24.842,2.91-33.834,8.2-8.518,5.006-13.208,11.5-13.208,18.282s4.691,13.275,13.208,18.282c8.992,5.286,21.008,8.2,33.834,8.2s24.841-2.911,33.834-8.2c8.517-5.006,13.208-11.5,13.208-18.282s-4.691-13.276-13.208-18.282C531.891,790.74,519.875,787.829,507.049,787.829Z" transform="translate(5112.068 5194.864)" fill="#ff7176"></path><path id="Path_3936" data-name="Path 3936" d="M1227.117,4075.2c27.576-19.241,155.7-59.272,261.23,32.537" transform="translate(4161.304 1810.359)" fill="none"></path><g id="Group_3502" data-name="Group 3502" transform="translate(436.822 1162.002)"><g id="Group_3437" data-name="Group 3437" transform="translate(3721.698 628.872)"><g id="Group_3393" data-name="Group 3393" transform="translate(1149.578 4044.619)"><g id="Group_68" data-name="Group 68" transform="translate(0)"><path id="Path_119" data-name="Path 119" d="M451.044,779.373v10.543L508.688,824.4l58.038-34.389V779.373l-57.841-33.4Z" transform="translate(-451.044 -745.969)" fill="#fcfefd"></path></g><g id="Group_69" data-name="Group 69" transform="translate(0 33.662)"><path id="Path_120" data-name="Path 120" d="M451.044,793.326v10.285L508.59,838.04V827.283Z" transform="translate(-451.044 -793.326)" fill="#dae9ff"></path></g><g id="Group_70" data-name="Group 70" transform="translate(57.546 33.335)"><path id="Path_121" data-name="Path 121" d="M590.017,792.865,532.3,827.324l-.3-.174v10.757l.1.059,58.038-34.389V792.934Z" transform="translate(-532.001 -792.865)" fill="#bccdf9"></path></g><g id="Group_71" data-name="Group 71" transform="translate(9.854 5.518)"><path id="Path_122" data-name="Path 122" d="M464.907,781.876,512.894,810.1l48.579-28.219L513.19,753.732Z" transform="translate(-464.907 -753.732)" fill="#cbd9fe"></path></g><g id="Group_72" data-name="Group 72" transform="translate(14.212 10.585)"><path id="Path_123" data-name="Path 123" d="M471.039,786.463l43.629,25.656,44.193-25.671-43.9-25.588Z" transform="translate(-471.039 -760.86)" fill="#e7f0ff"></path></g></g><g id="Group_3394" data-name="Group 3394" transform="translate(1142.375 4017.998)"><path id="Path_124" data-name="Path 124" d="M440.911,746.081v11.857l64.823,38.783L571,758.049V746.081l-65.044-37.564Z" transform="translate(-440.911 -708.517)" fill="#fcfefd"></path><path id="Path_125" data-name="Path 125" d="M440.911,761.772v11.566l64.712,38.717v-12.1Z" transform="translate(-440.911 -723.918)" fill="#dae9ff"></path><path id="Path_126" data-name="Path 126" d="M597.191,761.254,532.281,800l-.332-.2v12.1l.111.066L597.326,773.3V761.332Z" transform="translate(-467.237 -723.768)" fill="#bccdf9"></path><path id="Path_127" data-name="Path 127" d="M456.5,748.9l53.964,31.733L565.091,748.9l-54.3-31.649Z" transform="translate(-445.419 -711.042)" fill="#cbd9fe"></path><path id="Path_128" data-name="Path 128" d="M463.4,754.055l49.062,28.851,49.7-28.868L512.79,725.263Z" transform="translate(-447.413 -713.36)" fill="#e7f0ff"></path></g><g id="Group_3395" data-name="Group 3395" transform="translate(1137.877 3991.194)"><path id="Path_138" data-name="Path 138" d="M434.583,710.97v12.676l69.305,41.465,69.779-41.346V710.97l-69.542-40.161Z" transform="translate(-434.583 -670.809)" fill="#fcfefd"></path><path id="Path_139" data-name="Path 139" d="M434.583,727.746v12.366l69.187,41.394V768.572Z" transform="translate(-434.583 -687.274)" fill="#dae9ff"></path><path id="Path_140" data-name="Path 140" d="M601.67,727.191l-69.4,41.43-.355-.21v12.934l.118.071,69.779-41.346V727.275Z" transform="translate(-462.73 -687.113)" fill="#bccdf9"></path><path id="Path_141" data-name="Path 141" d="M451.25,713.98l57.7,33.927,58.406-33.927L509.3,680.142Z" transform="translate(-439.403 -673.508)" fill="#cbd9fe"></path><path id="Path_142" data-name="Path 142" d="M458.622,719.495l52.455,30.846,53.133-30.864-52.778-30.764Z" transform="translate(-441.535 -675.986)" fill="#e7f0ff"></path></g><g id="Group_3396" data-name="Group 3396" transform="translate(1182.659 4011.882)"><path id="Path_143" data-name="Path 143" d="M497.583,724.792v-9.952l24.4-14.927,25.471,14.69v10.188l-25.471,14.572Z" transform="translate(-497.583 -699.914)" fill="#fcfefd"></path><path id="Path_144" data-name="Path 144" d="M497.583,721.142v9.789l24.4,14.778V735.433Z" transform="translate(-497.583 -706.052)" fill="#dae9ff"></path><path id="Path_145" data-name="Path 145" d="M531.917,735.365v10.276l25.471-14.778V720.9Z" transform="translate(-507.512 -705.984)" fill="#bccdf9"></path><path id="Path_146" data-name="Path 146" d="M508.5,715.835l16.645-10,18.126,10-18.126,9.306Z" transform="translate(-500.74 -701.625)" fill="#cbd9fe"></path><path id="Path_147" data-name="Path 147" d="M510.29,717.147l15.373,8.595,16.74-8.595-16.74-9.24Z" transform="translate(-501.258 -702.225)" fill="#172683"></path><path id="Path_148" data-name="Path 148" d="M516.565,719.113l10.912-6.559,12.135,6.4-11.891,6.4Z" transform="translate(-503.072 -703.569)" fill="#00dd9a"></path></g><path id="Path_3676" data-name="Path 3676" d="M895.167,1602.51v-72.155l57.764,36.707v69.508Z" transform="translate(254.411 2429.2)" opacity="0.4" fill="url(#linear-gradient)"></path><path id="Path_3677" data-name="Path 3677" d="M952.931,1602.51v-72.155l-57.764,36.707v69.508Z" transform="translate(312.175 2429.2)" opacity="0.4" fill="url(#linear-gradient-2)"></path><g id="Group_3397" data-name="Group 3397" transform="translate(1170.114 3919.128)"><path id="Path_3346" data-name="Path 3346" d="M738.436-556.028a2.241,2.241,0,0,0,0,3.115c.687.735-.522,5.8.281,6.66s7.264,1,8.689-.444c1.148-1.228,22.037-23.578,22.943-24.548a2.172,2.172,0,0,1,3.522,0c1.323,1.416,16.447,24.113,17.239,24.961s7.728.879,8.831-.3l5.605-6a2.769,2.769,0,0,0,0-3.779c-1.181-1.155-30.958-33.122-31.8-34.021-1.5-1.34-7.859-1.5-8.948-.336S738.436-556.028,738.436-556.028Z" transform="translate(-731.699 591.502)" fill="#82ffd9"></path><path id="Path_3348" data-name="Path 3348" d="M738.436-556.1a2.241,2.241,0,0,0,0,3.115l5.81,6.216a1.98,1.98,0,0,0,3.16,0c1.148-1.228,22.037-23.578,22.943-24.548a2.172,2.172,0,0,1,3.522,0l23.045,24.657a2.028,2.028,0,0,0,3.026,0l5.605-6a2.769,2.769,0,0,0,0-3.779c-1.181-1.155-30.958-33.122-31.8-34.021a2.259,2.259,0,0,0-3.4.15C769.26-589.146,738.436-556.1,738.436-556.1Z" transform="translate(-737.804 591.578)" fill="#00dd9a"></path><path id="Path_3347" data-name="Path 3347" d="M811.68-470.564c1.133-1.211,7.078-1.336,8.987.628l18.019,19.279a2.358,2.358,0,0,1,0,3.628c-1.452,1.554-17.187,18.389-18.23,19.5-1.5,1.51-7.935,1.361-9.024.322-.871-.931-11.36-18.705-12.4-19.82s-.94-2.3,0-3.563S811.68-470.564,811.68-470.564Z" transform="translate(-778.479 500.442)" fill="#8797ff"></path><path id="Path_3349" data-name="Path 3349" d="M816.989-470.035a2.239,2.239,0,0,1,3.679,0l18.019,19.279a2.358,2.358,0,0,1,0,3.628c-1.452,1.554-17.187,18.389-18.23,19.5a2.052,2.052,0,0,1-3.2,0l-18.223-19.5c-1.042-1.114-.94-2.3,0-3.563S816.989-470.035,816.989-470.035Z" transform="translate(-784.585 500.542)" fill="#172683"></path></g></g></g><g id="Group_3503" data-name="Group 3503" transform="translate(5561.275 5930.736)"><g id="Group_68-2" data-name="Group 68" transform="translate(0)"><path id="Path_119-2" data-name="Path 119" d="M451.044,779.373v10.543L508.688,824.4l58.038-34.389V779.373l-57.841-33.4Z" transform="translate(-451.044 -745.969)" fill="#fcfefd"></path></g><g id="Group_69-2" data-name="Group 69" transform="translate(0 33.662)"><path id="Path_120-2" data-name="Path 120" d="M451.044,793.326v10.285L508.59,838.04V827.283Z" transform="translate(-451.044 -793.326)" fill="#dae9ff"></path></g><g id="Group_70-2" data-name="Group 70" transform="translate(57.546 33.335)"><path id="Path_121-2" data-name="Path 121" d="M590.017,792.865,532.3,827.324l-.3-.174v10.757l.1.059,58.038-34.389V792.934Z" transform="translate(-532.001 -792.865)" fill="#bccdf9"></path></g><g id="Group_71-2" data-name="Group 71" transform="translate(9.854 5.518)"><path id="Path_122-2" data-name="Path 122" d="M464.907,781.876,512.894,810.1l48.579-28.219L513.19,753.732Z" transform="translate(-464.907 -753.732)" fill="#cbd9fe"></path></g><g id="Group_72-2" data-name="Group 72" transform="translate(14.212 10.585)"><path id="Path_123-2" data-name="Path 123" d="M471.039,786.463l43.629,25.656,44.193-25.671-43.9-25.588Z" transform="translate(-471.039 -760.86)" fill="#e7f0ff"></path></g></g><g id="Group_3504" data-name="Group 3504" transform="translate(5554.072 5904.115)"><path id="Path_124-2" data-name="Path 124" d="M440.911,746.081v11.857l64.823,38.783L571,758.049V746.081l-65.044-37.564Z" transform="translate(-440.911 -708.517)" fill="#fcfefd"></path><path id="Path_125-2" data-name="Path 125" d="M440.911,761.772v11.566l64.712,38.717v-12.1Z" transform="translate(-440.911 -723.918)" fill="#dae9ff"></path><path id="Path_126-2" data-name="Path 126" d="M597.191,761.254,532.281,800l-.332-.2v12.1l.111.066L597.326,773.3V761.332Z" transform="translate(-467.237 -723.768)" fill="#bccdf9"></path><path id="Path_127-2" data-name="Path 127" d="M456.5,748.9l53.964,31.733L565.091,748.9l-54.3-31.649Z" transform="translate(-445.419 -711.042)" fill="#cbd9fe"></path><path id="Path_128-2" data-name="Path 128" d="M463.4,754.055l49.062,28.851,49.7-28.868L512.79,725.263Z" transform="translate(-447.413 -713.36)" fill="#e7f0ff"></path></g><g id="Group_3505" data-name="Group 3505" transform="translate(5549.575 5877.311)"><path id="Path_138-2" data-name="Path 138" d="M434.583,710.97v12.676l69.305,41.465,69.779-41.346V710.97l-69.542-40.161Z" transform="translate(-434.583 -670.809)" fill="#fcfefd"></path><path id="Path_139-2" data-name="Path 139" d="M434.583,727.746v12.366l69.187,41.394V768.572Z" transform="translate(-434.583 -687.274)" fill="#dae9ff"></path><path id="Path_140-2" data-name="Path 140" d="M601.67,727.191l-69.4,41.43-.355-.21v12.934l.118.071,69.779-41.346V727.275Z" transform="translate(-462.73 -687.113)" fill="#bccdf9"></path><path id="Path_141-2" data-name="Path 141" d="M451.25,713.98l57.7,33.927,58.406-33.927L509.3,680.142Z" transform="translate(-439.403 -673.508)" fill="#cbd9fe"></path><path id="Path_142-2" data-name="Path 142" d="M458.622,719.495l52.455,30.846,53.133-30.864-52.778-30.764Z" transform="translate(-441.535 -675.986)" fill="#e7f0ff"></path></g><g id="Group_3506" data-name="Group 3506" transform="translate(5594.356 5897.999)"><path id="Path_143-2" data-name="Path 143" d="M497.583,724.792v-9.952l24.4-14.927,25.471,14.69v10.188l-25.471,14.572Z" transform="translate(-497.583 -699.914)" fill="#fcfefd"></path><path id="Path_144-2" data-name="Path 144" d="M497.583,721.142v9.789l24.4,14.778V735.433Z" transform="translate(-497.583 -706.052)" fill="#dae9ff"></path><path id="Path_145-2" data-name="Path 145" d="M531.917,735.365v10.276l25.471-14.778V720.9Z" transform="translate(-507.512 -705.984)" fill="#bccdf9"></path><path id="Path_146-2" data-name="Path 146" d="M508.5,715.835l16.645-10,18.126,10-18.126,9.306Z" transform="translate(-500.74 -701.625)" fill="#cbd9fe"></path><path id="Path_147-2" data-name="Path 147" d="M510.29,717.147l15.373,8.595,16.74-8.595-16.74-9.24Z" transform="translate(-501.258 -702.225)" fill="#ff7b6f"></path><path id="Path_148-2" data-name="Path 148" d="M516.565,719.113l10.912-6.559,12.135,6.4-11.891,6.4Z" transform="translate(-503.072 -703.569)" fill="#588ef1"></path></g><circle id="Ellipse_264" data-name="Ellipse 264" cx="6" cy="6" r="6" transform="translate(5532.304 6041.359)" fill="#ff7176"></circle><circle id="Ellipse_265" data-name="Ellipse 265" cx="6" cy="6" r="6" transform="translate(5454.396 5856.923)" fill="#00dd9a"></circle><path id="Path_3952" data-name="Path 3952" d="M1427.771,4222.266s-88.5,44.958-200.655-5.679c-84.237-38.806-49.69-89.442-49.69-89.442" transform="translate(4162.164 1811.682)" fill="none" stroke="#ff7176" stroke-width="1"></path><g id="Group_3514" data-name="Group 3514" transform="translate(435.548 -616.007)"><path id="Subtraction_106" data-name="Subtraction 106" d="M35.168,60.34a18.817,18.817,0,0,1-4.249-.671c-1.623-.408-13.182-3.383-16.689-4.3a11.2,11.2,0,0,1-2.576-1.042,12.523,12.523,0,0,1-2.478-1.8,13,13,0,0,1-2.129-2.576A13.859,13.859,0,0,1,5.52,46.586C3.938,41.38,1.148,31.267.238,27.769a8.5,8.5,0,0,1-.192-2.942,13.151,13.151,0,0,1,.686-3.052,15.407,15.407,0,0,1,1.3-2.794,11.271,11.271,0,0,1,1.646-2.168c2.291-2.291,4.425-4.474,4.446-4.5a1.821,1.821,0,0,0-.342-.63,1.693,1.693,0,0,0-.542-.433,1.958,1.958,0,0,0-.889-.2,4,4,0,0,1-1.284-.244,4.938,4.938,0,0,1-1.409-.775,4.186,4.186,0,0,1-1.6-3.4A4.754,4.754,0,0,1,2.481,4.59a4.038,4.038,0,0,1,1.088-1.4,4.561,4.561,0,0,1,1.449-.8,4.767,4.767,0,0,1,1.513-.256A4.711,4.711,0,0,1,9.474,3.272a4.288,4.288,0,0,1,1.075,1.359,4.079,4.079,0,0,1,.423,1.833,1.705,1.705,0,0,0,.13.654,1.978,1.978,0,0,0,.311.51,2.169,2.169,0,0,0,.689.554c.146-.123,1.122-1.114,2.155-2.163h0c1.025-1.041,2.187-2.221,2.727-2.745a11.415,11.415,0,0,1,2.986-2.031A12.625,12.625,0,0,1,22.441.363,13.1,13.1,0,0,1,25.524,0a11.551,11.551,0,0,1,2.336.292c.882.184,1.894.446,3.065.75l.748.194c2.746.708,14.293,3.743,14.409,3.773a14.04,14.04,0,0,1,3.276,1.254A12.469,12.469,0,0,1,52,8.3a11.215,11.215,0,0,1,1.192,1.348,10.53,10.53,0,0,1,.905,1.44,13.057,13.057,0,0,1,.693,1.581c.193.526.374,1.106.555,1.773.38,1.4,1.61,5.751,2.8,9.954l0,.008c.915,3.235,1.78,6.291,2.113,7.5a10.323,10.323,0,0,1,.336,2.425,13.094,13.094,0,0,1-.256,2.928,12.5,12.5,0,0,1-1.042,3.077A11.274,11.274,0,0,1,57.269,43.2c-.747.768-1.689,1.739-2.78,2.862C50.641,50.027,45.371,55.456,43.778,57a11.461,11.461,0,0,1-1.7,1.353,11.944,11.944,0,0,1-2.02,1.057A12.9,12.9,0,0,1,35.168,60.34ZM33.51,21.9h-.019c-3.038.011-6.474.065-6.508.065a5.245,5.245,0,0,0-3.127,1.331,5.024,5.024,0,0,0-1.827,3.881c0,1.95.029,3.188.055,4.28.019.8.035,1.493.035,2.295a5.042,5.042,0,0,0,1.3,3.072,4.476,4.476,0,0,0,3.37,1.67h.048c1.3-.016,2.409-.024,3.478-.032h.005c1.2-.009,2.325-.017,3.539-.035a4.249,4.249,0,0,0,1.707-.41,5.083,5.083,0,0,0,.812-.475,5.388,5.388,0,0,0,.739-.639,5.59,5.59,0,0,0,1.549-4.034c-.024-1.186-.067-4.2-.089-6.206a4.883,4.883,0,0,0-1.385-3.147A5.015,5.015,0,0,0,33.51,21.9Z" transform="translate(5156.234 6450.11)" fill="url(#linear-gradient-3)"></path><path id="Intersection_13" data-name="Intersection 13" d="M12.939,26.949q0-.147,0-.288a4.883,4.883,0,0,0-1.385-3.147A5.074,5.074,0,0,0,9.1,22.051V14.807c0-4.172-.265-4.692-.671-6.1C6.568,2.244.163.055,0,0A12,12,0,0,1,2.216.291c.882.184,1.894.446,3.065.75l.748.194c1.322.341,4.683,1.221,7.827,2.046V28Z" transform="translate(5181.877 6450.111)" fill="url(#linear-gradient-4)"></path><path id="Intersection_14" data-name="Intersection 14" d="M1.045,3.736C.691,2.484.338,1.218,0,0H20.17a5.8,5.8,0,0,0,1,1.64,4.476,4.476,0,0,0,3.37,1.67h.048l.786-.009.507.436Z" transform="translate(5158.485 6485.293)" fill="url(#linear-gradient-5)"></path><path id="Intersection_15" data-name="Intersection 15" d="M30.369,30.718c-1.623-.408-13.182-3.383-16.689-4.3A11.2,11.2,0,0,1,11.1,25.375a12.523,12.523,0,0,1-2.478-1.8A13,13,0,0,1,6.5,21,13.859,13.859,0,0,1,4.97,17.634C3.54,12.93,1.123,4.216,0,0,1.611,4.443,5.072,9.7,13.519,9.7c4.139,0,8.739-.083,12.424-.171q.148.011.3.011h.048c1.3-.016,2.409-.024,3.478-.032h.005c1.2-.009,2.325-.017,3.539-.035a4.247,4.247,0,0,0,1.707-.41,5.072,5.072,0,0,0,.812-.475,5.387,5.387,0,0,0,.739-.638,5.58,5.58,0,0,0,1.55-3.91l1.418-1.452V30.444l-.027.011a12.9,12.9,0,0,1-4.892.934A18.817,18.817,0,0,1,30.369,30.718Z" transform="translate(5156.785 6479.062)" fill="url(#linear-gradient-6)"></path><path id="Intersection_17" data-name="Intersection 17" d="M5.773,8.617A12.715,12.715,0,0,1,.937,3.464C.576,2.144.255.956,0,0,1.611,4.443,5.073,9.7,13.519,9.7c4.139,0,8.739-.083,12.424-.171q.148.011.3.011h.048c1.3-.016,2.409-.024,3.478-.032h.005c1.2-.009,2.325-.017,3.539-.035a4.247,4.247,0,0,0,1.707-.41,5.072,5.072,0,0,0,.812-.475,5.387,5.387,0,0,0,.739-.638,5.58,5.58,0,0,0,1.55-3.91l.49-.5a4.452,4.452,0,0,1,.083,1.338,5.6,5.6,0,0,1-5.48,5.348c-2.57.057-14.372.151-17.99.151S9.118,10.375,5.773,8.617Z" transform="translate(5156.785 6479.062)" fill="url(#linear-gradient-7)"></path><path id="Intersection_19" data-name="Intersection 19" d="M0,6.705a4.622,4.622,0,0,0,.6-.229A5.072,5.072,0,0,0,1.41,6a5.387,5.387,0,0,0,.739-.638A5.58,5.58,0,0,0,3.7,1.452L5.118,0V27.857l-.027.011a12.885,12.885,0,0,1-4.81.933Z" transform="translate(5191.203 6481.649)" fill="url(#linear-gradient-8)"></path><path id="Intersection_20" data-name="Intersection 20" d="M4.644,59.706a5.08,5.08,0,0,0,4.22-1.366c1.984-1.776,1.694-3.607,1.694-7.266,0-1.7-.073-9.683-.155-17.932a5.988,5.988,0,0,0,.023-.667c-.024-1.186-.067-4.2-.089-6.206q0-.085-.006-.171c-.072-6.874-.138-12.633-.155-13.307A13.11,13.11,0,0,0,8.794,6.919,12.887,12.887,0,0,0,0,0L.105.006C.868.179,1.721.4,2.682.649L3.43.843c2.746.708,14.293,3.743,14.409,3.773a14.042,14.042,0,0,1,3.276,1.254A12.466,12.466,0,0,1,23.755,7.9a11.215,11.215,0,0,1,1.192,1.348,10.538,10.538,0,0,1,.905,1.44,13.081,13.081,0,0,1,.693,1.581c.193.526.374,1.106.554,1.773.38,1.4,1.61,5.751,2.8,9.954l0,.008c.915,3.235,1.78,6.291,2.113,7.5a10.32,10.32,0,0,1,.336,2.425,13.094,13.094,0,0,1-.256,2.928,12.509,12.509,0,0,1-1.042,3.077,11.277,11.277,0,0,1-2.024,2.871c-.747.768-1.689,1.739-2.78,2.862C22.4,49.634,17.129,55.064,15.536,56.6a11.455,11.455,0,0,1-1.7,1.353,11.939,11.939,0,0,1-2.02,1.057,12.9,12.9,0,0,1-4.892.934A13.427,13.427,0,0,1,4.644,59.706Z" transform="translate(5184.477 6450.502)" fill="url(#linear-gradient-9)"></path><path id="Intersection_27" data-name="Intersection 27" d="M0,5.755a4.617,4.617,0,0,0,.579-.221h0L.6,5.525A5.072,5.072,0,0,0,1.41,5.05a5.387,5.387,0,0,0,.739-.638A5.58,5.58,0,0,0,3.7.5L4.19,0a4.452,4.452,0,0,1,.083,1.338A5.588,5.588,0,0,1,.01,6.521Z" transform="translate(5191.203 6482.6)" fill="url(#linear-gradient-10)"></path><path id="Intersection_22" data-name="Intersection 22" d="M4.644,59.706a5.08,5.08,0,0,0,4.22-1.366c1.984-1.776,1.694-3.607,1.694-7.266,0-1.7-.073-9.683-.155-17.932a6,6,0,0,0,.023-.667c-.024-1.186-.067-4.2-.089-6.206q0-.085-.006-.171c-.072-6.874-.138-12.633-.155-13.307A13.11,13.11,0,0,0,8.794,6.919,12.887,12.887,0,0,0,0,0L.105.006C.868.179,1.721.4,2.682.649L3.43.843l1,.26A12.431,12.431,0,0,1,9.376,6.454,16.042,16.042,0,0,1,10.96,14.42c0,3.867.553,34.454.387,38.771-.152,3.955-.653,4.914-3.7,6.738q-.357.018-.719.018A13.419,13.419,0,0,1,4.644,59.706Z" transform="translate(5184.477 6450.502)" fill="url(#linear-gradient-11)"></path><path id="Path_3980" data-name="Path 3980" d="M5279.927,6568.051a4.072,4.072,0,1,0,0,8.145,4.072,4.072,0,0,0,0-8.145Z" transform="translate(-107.108 -128.993)" fill="#ffbb3c"></path><path id="Path_3981" data-name="Path 3981" d="M5278.658,6568.051a2.806,2.806,0,1,0,0,5.612,2.806,2.806,0,0,0,0-5.612Z" transform="translate(-115.725 -137.809)" fill="#00ebff"></path><path id="Path_3982" data-name="Path 3982" d="M5278,6568.051a2.149,2.149,0,1,0,0,4.3,2.149,2.149,0,0,0,0-4.3Z" transform="translate(-105.869 -144.051)" fill="#ff5d87"></path></g><path id="Path_3937" data-name="Path 3937" d="M895.167,1602.51v-72.155l57.764,36.707v69.508Z" transform="translate(4666.108 4315.317)" opacity="0.4" fill="url(#linear-gradient-12)"></path><path id="Path_3938" data-name="Path 3938" d="M952.931,1602.51v-72.155l-57.764,36.707v69.508Z" transform="translate(4723.949 4315.317)" opacity="0.4" fill="url(#linear-gradient-12)"></path></g></svg>